<svg width="1026" height="724" viewBox="0 0 1026 724" fill="none" xmlns="http://www.w3.org/2000/svg">
<g clip-path="url(#clip0_80_9732)">
<path d="M229.938 555.283C246.449 577.789 252.34 612.55 255.2 639.618C260.444 618.04 269.29 597.352 282.541 579.344C292.704 565.533 311.388 544.63 330.378 546.017C359.559 548.144 352.524 581.818 348.796 601.362C344.44 624.168 336.279 645.915 326.232 666.78C338.253 654.825 359.302 659.453 367.043 673.976C375.136 689.136 370.694 708.428 361.495 722.061C361.113 722.632 360.475 723.035 360.541 723.934H55.4815V722.997C50.1334 711.295 45.548 698.365 44.0418 685.519C43.6318 682.015 44.2801 677.902 44.0418 674.276C45.4717 673.63 44.9665 671.765 44.9951 670.528C45.0142 669.91 44.9379 669.273 44.9951 668.654L49.7616 661.159C59.1041 654.075 71.8689 653.588 81.2209 661.159C83.8139 663.257 86.3116 667.689 88.6758 670.228L94.5578 681.772C94.0525 671.662 94.6912 662.62 96.4739 652.736C96.5311 652.436 96.4167 652.098 96.4739 651.799L97.4272 649.925C97.5607 649.372 97.2842 648.585 97.4272 648.051L98.3805 646.177C98.4663 645.896 98.2852 645.521 98.3805 645.24L99.3339 643.366C103.09 633.575 107.98 622.05 118.686 617.881C125.34 615.286 127.314 616.354 133.653 618.068L138.42 620.879C139.421 622.107 140.841 623.119 141.28 623.69C145.55 629.218 148.487 635.627 152.243 641.473C157.991 632.76 162.948 624.683 170.823 617.59C177.906 611.219 179.526 615.042 179.422 603.527C179.402 601.943 180.041 599.367 178.459 598.392C179.021 580.384 177.887 554.796 196.848 544.789C210.604 537.528 221.863 544.283 229.938 555.293V555.283Z" fill="#187B99"/>
<path d="M916.323 604.005C917.943 589.07 926.256 562.807 937.868 552.566C955.78 536.769 963.273 567.445 966.572 579.438C971.195 596.237 973.607 612.437 974.465 629.78C974.513 630.839 973.846 632.347 975.409 632.094C981.405 615.501 989.661 598.795 999.432 584.029C1006.36 573.544 1014.81 561.542 1025.94 555.274C1025.92 610.395 1025.93 665.553 1025.99 720.693L1025.06 723.522C938.621 724.291 852.136 723.906 765.699 723.934C765.757 723.072 765.185 722.66 764.746 722.061C754.45 707.997 743.02 693.437 744.841 674.857C746.462 658.404 764.165 642.251 780.857 650.477C782.707 651.386 785.271 654.169 786.405 654.469C788.779 655.097 789.351 653.26 790.486 652.726C793.107 651.499 793.508 654.169 794.299 648.978C794.709 646.327 794.633 640.733 795.252 638.672C795.595 637.529 799.876 630.886 801.029 629.827C806.063 625.227 808.599 627.541 813.365 626.492C814.214 628.028 817.474 630.324 819.085 630.239C818.732 631.832 820.82 632.685 820.992 633.05C821.973 635.121 821.211 638.569 824.805 638.672C824.967 643.375 829.848 663.482 837.684 656.483C840.115 654.31 845.244 642.335 847.684 638.672C848.361 637.651 851.335 637.042 851.316 634.634C851.297 633.153 847.713 624.814 847.007 622.004C843.814 609.439 838.027 585.163 850.621 576.421C859.315 570.387 866.388 575.653 872.985 581.48C885.645 592.677 895.417 608.062 904.893 621.797L915.369 643.338C915.427 634.296 915.322 625.217 915.379 616.176C917.228 614.264 916.151 610.432 916.332 607.743C916.418 606.506 916.199 605.223 916.332 603.995L916.323 604.005Z" fill="#187B99"/>
<path d="M381.515 722.997C385.004 722.997 388.512 722.997 392.001 722.997C427.579 723.016 463.195 722.997 498.772 722.997H510.212C593.274 722.997 676.46 723.869 759.512 723.016C761.124 722.998 763.755 723.616 764.746 722.061C765.185 722.66 765.757 723.072 765.699 723.934C630.663 723.981 495.579 723.925 360.542 723.934C360.475 723.035 361.114 722.632 361.495 722.061C367.577 723.794 375.089 722.988 381.515 722.997Z" fill="#979797"/>
<path d="M368.168 250.774C371.228 254.822 380.189 261.305 381.514 265.765C382.115 267.798 382.391 270.6 382.515 272.755C385.346 322.142 381.638 375.838 381.466 425.478C381.123 524.654 381.819 623.84 381.514 723.007C375.089 723.007 367.577 723.803 361.495 722.07C370.694 708.437 375.136 689.145 367.043 673.986C359.292 659.472 338.253 654.834 326.232 666.79C336.279 645.933 344.449 624.177 348.796 601.372C352.533 581.827 359.559 548.153 330.378 546.026C311.388 544.639 292.704 565.543 282.541 579.354C269.29 597.362 260.434 618.05 255.2 639.628C252.34 612.559 246.449 577.798 229.938 555.293C231.32 556.22 232.75 557.963 234.714 556.745C235.581 556.201 245.191 542.306 246.516 540.208C287.279 475.736 295.754 396.817 324.592 327.426C333.896 305.033 345.841 282.677 358.463 262.336C360.856 258.476 363.172 250.774 368.158 250.783L368.168 250.774Z" fill="#E5EFF0"/>
<path d="M55.4815 722.997H0.189453C0.33245 719.203 5.07994 715.652 7.80641 713.15C14.8037 706.704 24.518 698.843 32.1254 693.015C35.5382 690.401 40.1999 687.206 44.0418 685.519C45.548 698.365 50.1335 711.295 55.4815 722.997Z" fill="#E5EFF0"/>
<path d="M141.279 623.681C144.492 622.547 144.378 625.976 145.598 626.454C148.076 627.419 147.686 625.198 148.687 624.693C158.658 619.708 168.01 614.105 177.524 608.23C179.24 606.356 178.373 601.175 178.458 598.374C180.041 599.348 179.412 601.925 179.421 603.508C179.526 615.023 177.896 611.191 170.822 617.572C162.948 624.664 157.991 632.75 152.242 641.455C148.486 635.608 145.55 629.199 141.279 623.671V623.681Z" fill="#E5EFF0"/>
<path d="M96.4737 652.726C94.691 662.611 94.0523 671.662 94.5575 681.762L88.6756 670.219C86.3114 667.689 83.8137 663.248 81.2207 661.149C86.3781 660.025 92.4984 656.221 96.4737 652.717V652.726Z" fill="#E5EFF0"/>
<path d="M44.9948 668.654C45.1378 667.08 44.5753 665.506 45.4809 663.988C46.0243 663.079 48.6364 662.011 49.7613 661.159L44.9948 668.654Z" fill="#E5EFF0"/>
<path d="M138.419 620.87L133.652 618.059C134.634 618.321 136.198 617.647 137.504 618.499C138.533 619.174 138.2 620.598 138.419 620.87Z" fill="#E5EFF0"/>
<path d="M44.9958 670.528C44.9672 671.765 45.4725 673.629 44.0425 674.276C43.9663 673.152 40.9729 670.022 44.9958 670.528Z" fill="#E5EFF0"/>
<path d="M98.3809 645.23C98.6764 644.35 99.153 643.834 99.3342 643.357L98.3809 645.23Z" fill="#E5EFF0"/>
<path d="M96.4746 651.789C96.7701 650.337 97.3993 650.018 97.4279 649.915L96.4746 651.789Z" fill="#E5EFF0"/>
<path d="M97.4277 648.041C97.7805 646.776 98.3524 646.271 98.381 646.167L97.4277 648.041Z" fill="#E5EFF0"/>
<path d="M640.814 633.987C644.599 634.128 651.349 622.182 652.931 621.788C654.666 621.357 668.089 623.222 669.404 624.159C670.167 624.702 675.248 640.714 675.134 641.904C674.953 643.703 668.136 653.663 666.087 653.663H651.31C650.595 659.941 674.524 672.768 677.05 670.519C677.107 666.293 671.406 658.367 671.397 655.059C671.397 654.413 676.649 643.844 677.202 643.507C679.195 642.289 693.79 644.116 697.384 643.319C698.08 643.488 703.399 654.619 703.352 656.015C703.256 658.695 698.957 666.162 698.061 669.16C697.165 672.159 703.762 669.441 704.686 669.104C714.277 665.562 718.834 661.262 724.725 653.663C726.365 651.546 729.196 650.028 729.644 646.317L764.774 646.177L764.297 648.051C770.818 644.34 779.34 646.889 786.69 646.177C785.365 649.419 786.128 653.073 790.504 652.726C789.36 653.26 788.797 655.097 786.423 654.469C785.289 654.169 782.724 651.386 780.875 650.477C764.183 642.251 746.48 658.404 744.859 674.857C743.029 693.437 754.468 707.997 764.764 722.061C763.773 723.616 761.151 722.998 759.53 723.016C676.468 723.878 593.282 722.998 510.23 722.998C511.736 713.956 507.885 647.845 511.126 645.643C513.805 643.816 525.254 646.702 529.296 645.231C528.657 649.794 531.022 652.942 534.682 655.406C536.293 656.493 542.213 658.47 543.319 659.566C545.016 661.262 546.16 665.197 549.802 667.717C559.478 674.398 582.081 674.285 589.793 664.878C594.512 659.126 589.688 651.724 589.355 645.24H644.647C643.817 641.502 641.358 637.801 640.834 633.997L640.814 633.987Z" fill="#E5EFF0"/>
<path d="M851.497 332.289C852.631 321.242 855.51 310.111 856.254 299.018C857.235 284.467 855.825 269.607 858.284 255.103C858.627 253.079 861.201 239.971 864.843 243.278C865.825 244.169 869.362 266.224 869.6 269.063C871.058 286.294 870.992 322.441 867.293 338.904C865.939 344.919 861.935 350.231 860.057 356.153C859.056 359.31 854.509 375.473 859.619 375.435C863.785 375.407 862.717 367.902 866.759 367.902C867.503 368.783 865.234 380.176 864.595 382.163C862.765 387.813 853.356 397.248 867.016 394.849C868.485 394.587 880.334 388.965 881.926 387.953C885.177 385.892 887.789 379.98 888.685 376.326C892.746 376.185 904.014 373.187 904.892 377.731V621.807C895.406 608.071 885.644 592.686 872.975 581.49C866.387 575.662 859.314 570.387 850.61 576.43C838.026 585.163 843.813 609.439 846.997 622.013C847.712 624.814 851.296 633.163 851.306 634.643C851.334 637.051 848.351 637.66 847.674 638.681C836.682 629.79 834.442 616.382 827.873 605.204C827.111 603.902 824.871 602.702 824.794 602.14C824.794 602.075 825.748 601.709 825.757 601.222L821.934 602.14C820.142 602.037 818.34 601.213 818.121 601.203C822.707 602.281 820.619 597.287 821.2 594.392C828.655 557.532 829.933 518.705 829.561 481.273C829.399 464.867 833.879 448.096 834.327 431.615C835.5 431.381 837.13 430.191 838.932 430.528C842.326 413.11 845.424 395.308 847.55 377.619C849.361 362.562 849.943 347.271 851.487 332.298L851.497 332.289Z" fill="#E5EFF0"/>
<path d="M787.625 637.735C787.625 637.857 786.652 638.812 786.586 640.049C786.385 643.984 789.693 649.615 794.298 648.978C793.507 654.169 793.106 651.499 790.485 652.726C786.099 653.063 785.346 649.419 786.671 646.177C779.331 646.889 770.808 644.34 764.278 648.051L764.755 646.177L729.625 646.317C729.177 650.028 726.346 651.546 724.706 653.663C720.779 652.932 709.358 654.862 706.584 653.204C706.04 652.876 700.978 643.282 700.635 642.129C699.958 639.881 705.106 625.058 707.242 623.849C708.166 623.325 721.389 619.108 722.161 619.23C723.047 619.371 732.495 626.37 733.286 627.428C735.317 630.146 734.926 634.634 735.193 634.924C736.918 636.732 779.588 633.547 785.718 634.924C786.004 629.48 785.337 623.906 785.661 618.471C785.766 616.728 785.451 614.958 787.625 614.302C787.072 621.854 787.873 630.061 787.625 637.726V637.735Z" fill="#FDFEFE"/>
<path d="M818.131 601.194C818.35 601.194 820.152 602.028 821.944 602.131C822.888 602.187 823.851 602.093 824.804 602.131C824.88 602.693 827.121 603.892 827.883 605.195C834.452 616.372 836.692 629.771 847.684 638.672C845.253 642.335 840.114 654.309 837.683 656.483C829.847 663.482 824.966 643.375 824.804 638.672C827.225 635.036 834.69 636.264 837.178 634.437C841.287 631.41 833.641 629.321 831.105 629.377C828.207 629.433 823.412 631.364 820.991 633.059C820.819 632.694 818.731 631.841 819.084 630.249C823.288 630.024 838.589 620.439 825.271 620.813C818.007 621.02 816.005 625.92 813.364 626.501C808.598 627.55 806.062 625.236 801.028 629.836C799.875 630.895 795.595 637.538 795.251 638.681L787.625 637.744C787.873 630.08 787.072 621.872 787.625 614.32C787.644 614.011 787.587 613.693 787.625 613.383L788.559 612.915L787.625 612.447C787.673 612.137 787.577 611.819 787.625 611.51C790.799 607.556 795.461 611.51 798.454 610.488C800.866 609.664 799.16 605.972 801.381 603.948C803.793 601.756 807.806 602.552 810.504 602.14C810.809 602.093 811.143 602.178 811.458 602.14C812.077 602.074 812.735 602.178 813.364 602.14C813.612 602.131 814.098 601.212 814.318 601.203C815.576 601.175 816.872 601.156 818.131 601.203V601.194Z" fill="#F59D83"/>
<path d="M819.083 630.239C817.472 630.324 814.212 628.028 813.363 626.491C816.004 625.911 818.006 621.01 825.27 620.804C838.588 620.429 823.287 630.014 819.083 630.239Z" fill="#FDFEFE"/>
<path d="M820.99 633.05C823.412 631.364 828.197 629.434 831.105 629.368C833.641 629.312 841.296 631.401 837.177 634.427C834.699 636.254 827.225 635.027 824.803 638.662C821.209 638.559 821.972 635.111 820.99 633.041V633.05Z" fill="#FDFEFE"/>
<path d="M795.252 638.672C794.633 640.733 794.709 646.327 794.299 648.978C789.704 649.615 786.387 643.984 786.587 640.049C786.653 638.822 787.616 637.866 787.626 637.735L795.252 638.672Z" fill="#023E55"/>
<path d="M915.368 616.185C915.387 613.543 914.596 609.598 916.321 607.752C916.14 610.441 917.217 614.274 915.368 616.185Z" fill="#E5EFF0"/>
<path d="M394.86 277.946C402.172 283.549 412.963 288.721 420.609 295.27C429.389 302.784 433.278 312.566 440.571 319.677C442.039 321.111 443.031 322.301 445.376 321.982C445.071 339.672 441.439 359.47 440.571 377.693C439.437 401.707 440.638 425.928 439.694 449.914C439.589 452.575 438.283 455.067 438.779 457.765L446.329 458.777C446.739 439.898 445.795 420.924 446.291 402.054C446.653 388.215 447.435 373.861 448.245 359.938C448.665 352.677 452.411 332.101 451.096 326.667C453.145 326.039 454.718 328.26 455.862 328.541C455.757 329.122 456.015 329.946 455.862 330.415C455.348 331.951 455.014 331.895 454.909 334.163C454.099 351.805 452.526 369.533 452.011 387.063C451.725 396.817 454.108 457.578 452.049 460.651C448.789 465.514 448.646 474.593 448.198 481.695C445.929 517.711 448.484 568.719 455.023 604.398C455.319 606.019 455.319 608.249 457.779 607.762C452.907 611.032 450.4 617.263 447.292 621.816C443.336 627.606 440.266 632.75 436.806 638.681C434.003 643.497 430.19 644.921 432.039 652.735C431.362 650.646 431.496 647.311 429.189 648.041C429.78 650.74 427.663 652.867 427.33 655.134C424.556 673.639 456.272 676.122 468.027 668.889C472.421 666.19 474.071 661.889 477.312 659.275C480.715 656.53 484.748 656.858 487.855 652.773C488.494 651.939 492.136 645.249 492.145 644.799C492.155 644.518 488.704 641.333 488.284 640.555C488.666 640.349 490.067 641.145 490.239 640.002C488.733 633.041 492.212 618.837 484.471 616.194L493.041 508.904L494.004 461.597C495.206 461.391 501.154 459.902 501.44 459.527C503.9 433.695 504.472 407.413 505.787 381.441L508.771 380.064L513.986 459.105C514.348 460.623 523.452 461.363 525.464 461.597C525.788 471.726 525.044 481.957 525.426 492.086C526.655 525.113 530.659 558.375 533.081 591.375C533.681 599.573 533.119 608.099 534.997 616.194C534.043 616.55 532.718 616.475 531.851 617.047C529.553 618.574 529.182 631.663 529.277 634.933C521.069 634.568 511.154 632.966 503.013 633.95C501.602 634.118 500.315 633.94 499.858 635.533L498.771 723.007C463.193 723.007 427.578 723.026 392 723.007L392.953 374.461H440.619V364.145L393.001 363.171C393.602 335.905 392.019 308.453 392.953 281.187C393.011 279.379 391.981 277.43 394.86 277.955V277.946Z" fill="#E5EFF0"/>
<path d="M394.861 277.946C391.982 277.421 393.011 279.379 392.954 281.178C392.029 308.443 393.602 335.896 393.002 363.161L440.62 364.136V374.452H392.945L391.991 722.997C388.502 722.997 384.994 722.997 381.505 722.997C381.81 623.84 381.124 524.645 381.457 425.469C381.629 375.829 385.337 322.132 382.506 272.746C382.382 270.591 382.115 267.789 381.505 265.756C385.785 268.079 389.646 271.949 393.469 275.116C394.67 276.109 394.727 277.833 394.851 277.936L394.861 277.946Z" fill="#FDFEFE"/>
<path d="M640.815 633.987C641.339 637.791 643.799 641.492 644.628 645.231H589.336C589.66 651.714 594.484 659.116 589.775 664.869C582.062 674.276 559.469 674.388 549.783 667.708C546.132 665.188 544.998 661.252 543.301 659.556C542.204 658.46 536.275 656.483 534.664 655.396C531.003 652.923 528.639 649.784 529.277 645.221C525.226 646.702 513.786 643.806 511.107 645.633C507.876 647.835 511.727 713.947 510.211 722.988H498.771L499.858 635.514C500.325 633.922 501.612 634.1 503.014 633.931C511.155 632.947 521.069 634.549 529.277 634.915C529.335 636.751 529.058 638.616 529.392 640.433C546.99 643.394 553.415 666.312 571.662 665.862C583.244 665.572 585.828 660.568 587.429 650.843C587.582 649.915 590.013 646.795 587.429 645.221C587.401 644.912 587.477 644.584 587.429 644.284C587.334 643.638 586.476 639.899 586.324 639.712C585.961 639.253 584.789 639.74 584.57 639.599C582.434 638.185 583.197 637.454 582.663 636.789C583.12 632.235 590.223 634.933 592.635 634.962C606.162 635.102 622.416 635.917 635.629 634.98C637.831 634.821 639.175 634.577 640.815 633.041C640.844 633.35 640.777 633.669 640.815 633.978V633.987Z" fill="#FDFEFE"/>
<path d="M799.064 25.9057L799.007 9.6121L799.674 8.99372L905.845 0.598633C905.692 64.4706 906.016 128.371 905.883 192.252C905.778 241.91 905.501 291.634 905.883 341.143C905.94 349.201 905.692 357.081 904.891 365.082H889.629C889.705 361.503 889.581 357.896 889.629 354.316C890.048 320.567 901.945 285.516 899.152 251.252C898.723 245.967 895.187 236.279 896.331 231.735C896.626 230.564 898.609 231.229 898.199 225.008C896.864 204.985 888.837 166.12 869.666 155.617C861.115 150.932 849.799 148.553 841.038 143.962C836.739 151.288 818.178 167.517 809.922 168.275C800.713 169.119 784.393 151.794 777.424 145.957C769.674 149.255 760.932 151.214 753.324 154.746C746.899 157.725 743.362 161.698 739.806 167.695C724.086 194.229 730.378 226.432 718.795 252.92C716.193 258.879 707.88 266.618 704.696 271.387C689.004 262.336 670.558 257.042 652.264 257.333C651.758 256.808 653.15 247.673 649.404 247.963C639.318 215.282 610.118 172.229 583.635 150.042C581.614 148.346 578.84 145.77 575.999 145.835C576.056 145.095 576.085 144.355 575.894 143.624C575.103 141.75 551.308 134.245 547.409 132.709C545.931 144.524 544.902 155.505 538.982 166.13C529.182 183.707 510.163 189.994 491.173 182.817C469.981 174.815 465.577 153.818 464.461 133.636C463.947 133.13 455.519 135.997 453.984 136.457C456.282 132.643 458.16 134.386 460.915 133.44C466.683 131.453 469.857 129.673 475.911 128.024C474.071 130.469 468.513 129.814 468.255 133.177C470.124 149.602 471.878 166.683 487.427 176.202C505.139 187.043 526.388 181.074 536.141 163.338C541.699 153.237 542.28 142.594 543.672 131.453C543.424 130.216 536.665 128.371 535.016 128.97C533.5 126.675 525.254 125.466 524.644 123.705C524.463 123.18 523.471 113.173 523.548 112.621C523.881 110.231 527.275 108.133 528.343 106.483H770.484C771.275 106.577 782.829 111.627 783.354 112.105C784.536 113.173 786.557 118.823 787.796 120.856C791.342 126.637 794.031 125.194 793.344 134.114C792.744 141.853 790.227 141.572 783.83 144.421C788.721 149.293 804.708 165.146 811.705 163.46C813.421 163.047 822.897 156.339 824.832 154.736C826.872 153.05 834.708 145.442 835.299 143.474C826.91 141.525 828.064 134.864 827.873 127.752C832.306 124.763 835.185 115.272 838.121 112.517C839.894 110.859 843.555 110.719 846.263 109.276C852.354 106.024 858.169 97.3295 856.082 90.2836C855.967 89.9088 851.887 84.1278 851.525 83.9967C852.688 79.6024 851.982 74.9176 852.574 70.5046C854.08 59.308 859.037 50.0228 850.104 39.9506C837.549 25.7839 816.71 25.3529 799.093 25.9057H799.064Z" fill="#E5EFF0"/>
<path d="M704.686 271.387C707.87 266.618 716.183 258.879 718.785 252.92C730.368 226.432 724.076 194.229 739.796 167.695C743.352 161.698 746.889 157.725 753.314 154.746C760.922 151.223 769.664 149.255 777.414 145.957C784.383 151.794 800.694 169.119 809.912 168.275C818.168 167.517 836.729 151.289 841.028 143.962C849.799 148.553 861.115 150.932 869.656 155.617C888.827 166.12 896.845 204.985 898.189 225.008C898.608 231.239 896.616 230.564 896.321 231.735C895.177 236.279 898.713 245.967 899.142 251.252C901.936 285.507 890.038 320.567 889.619 354.316C889.571 357.905 889.705 361.503 889.619 365.082C889.533 369.073 889.638 372.353 888.665 376.325C887.769 379.97 885.157 385.882 881.906 387.953C880.314 388.965 868.465 394.587 866.997 394.849C853.336 397.248 862.745 387.812 864.575 382.163C865.214 380.176 867.483 368.783 866.739 367.902C862.697 367.902 863.765 375.407 859.599 375.435C854.489 375.473 859.037 359.32 860.038 356.153C861.916 350.231 865.919 344.919 867.273 338.904C870.982 322.441 871.039 286.294 869.58 269.063C869.342 266.224 865.805 244.169 864.823 243.278C861.181 239.98 858.617 253.079 858.264 255.103C855.805 269.607 857.216 284.467 856.234 299.018C855.49 310.111 852.611 321.242 851.477 332.289C838.264 332.654 825.156 332.036 812.076 330.256C783.048 326.302 755.373 313.39 725.64 317.298C732.589 292.562 754.477 271.631 757.089 247.485C757.204 246.417 757.833 237.01 755.211 239.531C749.024 252.835 744.105 266.955 736.155 279.37C729.31 290.07 720.568 298.783 712.627 308.247C711.292 309.839 702.684 320.174 702.303 321.064C700.472 325.318 702.436 338.313 701.816 344.01C701.511 346.783 699.128 358.102 695.096 355.282C693.313 354.035 695.286 343.551 692.283 346.352C690.11 348.376 688.422 360.781 688.451 364.154C688.489 367.78 691.454 373.927 686.22 373.271C683.484 372.924 674.18 364.632 672.245 362.281C666.544 355.356 668.374 348.592 670.614 340.534C674.552 326.367 691.025 294.014 698.937 280.766C700.529 278.095 703.084 273.748 704.657 271.396L704.686 271.387Z" fill="#F59D83"/>
<path d="M575.99 145.835C574.722 162.045 571.958 179.163 570.27 195.494C568.488 212.668 566.285 229.871 564.55 247.026C564.331 249.162 564.76 251.449 564.55 253.585C564.407 255 563.797 256.995 563.597 259.207C563.082 264.997 561.719 270.291 562.644 276.072C562.825 277.234 562.491 278.62 562.644 279.829C563.597 279.866 564.55 279.791 565.504 279.829C561.853 281.946 563.969 289.695 564.541 293.424C564.798 295.092 564.083 296.956 566.457 297.631C564.722 301.725 566.028 301.407 566.457 304.19C567.067 308.153 566.943 311.254 570.27 314.496C572.453 317.897 570.204 322.123 570.27 324.803L564.026 327.567C543.072 334.584 477.704 333.891 455.873 328.55C454.729 328.269 453.156 326.049 451.106 326.676C450.754 325.215 448.199 323.828 447.407 322.348C446.063 319.837 447.474 315.976 444.433 316.37C444.252 308.977 448.647 293.115 449.2 282.64C450.801 252.414 444.786 221.888 441.573 191.755C440.992 186.34 441.201 180.034 440.61 174.431C439.609 164.921 438.465 155.261 436.807 145.845C439.056 142.594 435.815 144.177 441.573 141.16L448.246 138.349C448.523 138.246 448.923 138.452 449.2 138.349L451.106 137.412C452.05 137.103 453.032 136.756 453.966 136.475C455.501 136.016 463.928 133.159 464.443 133.655C465.568 153.837 469.963 174.834 491.155 182.836C510.154 190.003 529.163 183.726 538.963 166.149C544.893 155.524 545.923 144.542 547.391 132.728C551.28 134.264 575.085 141.76 575.876 143.643C576.066 144.374 576.038 145.114 575.981 145.854L575.99 145.835Z" fill="#187B99"/>
<path d="M547.39 79.3119L550.459 80.9984C623.855 42.6397 705.334 19.928 788.034 10.8958C789.273 11.0925 788.244 23.3572 788.558 25.3623C788.749 26.5428 792.2 25.6434 793.344 25.9057C790.084 26.1118 784.335 26.6834 780.903 27.2643C767.328 29.5317 753.334 49.3576 761.446 61.4818C763.191 64.0865 766.88 64.2739 767.462 65.8761C769.101 70.3922 768.958 79.846 769.521 84.9336C767.033 86.489 765.574 93.2725 765.708 96.1771C706.135 95.6055 646.496 96.9173 586.923 96.2145C572.729 96.0459 557.571 95.0621 543.586 94.3032C547.027 88.6065 549.029 86.3203 547.399 79.3119H547.39Z" fill="#E5EFF0"/>
<path d="M436.807 145.835C438.465 155.252 439.609 164.912 440.61 174.422C441.201 180.025 440.992 186.33 441.573 191.746C431.478 198.455 420.867 204.723 411.153 211.975C407.397 214.776 399.084 220.614 396.281 223.584C392.401 227.697 397.749 228.784 400.114 231.135C411.763 242.679 419.609 260.04 431.592 270.422C436.587 274.751 443.48 279.164 449.2 282.63C448.647 293.105 444.252 308.968 444.433 316.361C444.481 318.272 445.415 320.146 445.386 321.982C443.032 322.301 442.05 321.111 440.582 319.677C433.289 312.566 429.399 302.784 420.619 295.27C412.964 288.721 402.182 283.549 394.87 277.946C394.746 277.852 394.689 276.119 393.488 275.125C389.665 271.958 385.804 268.089 381.524 265.765C380.199 261.305 371.238 254.822 368.178 250.774C366.319 248.31 362.515 241.564 361.009 238.612C358.339 233.384 353.182 222.028 355.918 216.706C358.463 211.759 371.648 198.389 376.262 193.611C389.379 180.015 404.737 166.186 420.305 155.383C423.031 153.49 436.273 146.622 436.807 145.835Z" fill="#F59D83"/>
<path d="M467.312 77.438C469.447 73.5121 476.464 74.0462 476.845 73.6902C477.226 73.3341 476.445 68.4526 476.845 68.0778C476.988 67.9373 479.762 68.1434 480.877 67.8436C490.592 65.267 498.514 59.1393 507.027 54.1735C516.283 60.3573 525.34 64.9578 536.894 61.5192C537.247 63.4024 536.446 73.2779 536.894 73.6995C537.266 74.0462 543.977 72.9874 546.437 76.501C546.522 76.6228 547.323 79.0214 547.39 79.3119C549.02 86.3203 547.018 88.6064 543.577 94.3031C542.948 94.2656 532.719 99.0159 532.166 99.4844C530.421 100.955 529.487 104.694 528.324 106.483C527.256 108.132 523.862 110.241 523.529 112.62C523.452 113.173 524.444 123.18 524.625 123.705C525.235 125.466 533.481 126.675 534.997 128.97C536.055 150.904 527.246 178.657 499.457 172.801C482.136 169.147 477.188 142.743 477.798 128.033C483.89 126.515 487.493 125.728 488.285 119.132C488.952 113.52 486.388 102.801 482.098 98.9878C480.792 97.826 474.795 96.0927 472.565 94.3031C468.122 90.7333 464.414 82.788 467.321 77.438H467.312Z" fill="#F59D83"/>
<path d="M799.064 25.9057C816.682 25.3529 837.521 25.7838 850.076 39.9506C859.009 50.0228 854.051 59.308 852.545 70.5045C851.954 74.9082 852.66 79.593 851.497 83.9966C850.276 83.5469 845.271 84.437 844.814 83.9966C844.07 83.2845 846.587 70.1204 841.963 66.6537C834.651 61.1819 819.446 69.4645 811.658 71.5445C799.512 74.7864 789.016 76.0513 777.129 70.8699V83.9873C777.129 84.362 771.456 83.7062 769.502 84.9242C768.94 79.8366 769.083 70.3827 767.443 65.8666C766.862 64.2644 763.172 64.077 761.428 61.4723C753.324 49.3482 767.31 29.5223 780.885 27.2549C784.326 26.6833 790.075 26.1024 793.325 25.8963C795.213 25.7745 797.148 25.9525 799.045 25.8963L799.064 25.9057Z" fill="#023E55"/>
<path d="M546.437 76.501C543.978 72.9874 537.266 74.0462 536.895 73.6995C536.447 73.2779 537.247 63.3931 536.895 61.5191C525.331 64.9671 516.284 60.3573 507.027 54.1735C498.514 59.1393 490.592 65.267 480.878 67.8436C479.763 68.1434 476.998 67.9373 476.846 68.0778C476.445 68.462 477.236 73.3247 476.846 73.6902C476.455 74.0556 469.448 73.5121 467.312 77.438C460.458 58.6052 466.864 37.9829 483.976 26.8238C517.867 4.72117 560.556 40.0442 546.437 76.501Z" fill="#023E55"/>
<path d="M477.798 128.033C477.197 142.744 482.136 169.147 499.457 172.801C527.246 178.666 536.055 150.914 534.997 128.97C536.646 128.371 543.414 130.216 543.653 131.453C542.261 142.594 541.679 153.237 536.122 163.338C526.369 181.084 505.12 187.043 487.407 176.202C471.859 166.683 470.105 149.602 468.236 133.177C468.494 129.814 474.052 130.469 475.891 128.024C476.425 127.874 477.245 128.165 477.798 128.024V128.033Z" fill="#187B99"/>
<path d="M448.245 138.34L441.572 141.151C444.385 139.68 445.405 139.389 448.245 138.34Z" fill="#E5EFF0"/>
<path d="M451.106 137.403L449.199 138.34C449.485 138.237 450.048 137.75 451.106 137.403Z" fill="#E5EFF0"/>
<path d="M638.908 576.833C640.758 577.723 641.148 579.803 642.76 581.021C650.872 587.158 706.641 600.21 717.68 600.163C721.408 600.154 723.162 597.558 726.622 597.446C726.641 599.816 731.084 606.413 732.123 609.373C733.658 613.693 734.907 619.586 735.231 624.158C735.355 625.901 736.012 627.991 733.286 627.428C732.495 626.37 723.057 619.361 722.161 619.23C721.389 619.108 708.166 623.334 707.242 623.849C705.106 625.058 699.958 639.881 700.635 642.129C700.978 643.282 706.04 652.876 706.584 653.204C709.358 654.862 720.779 652.932 724.706 653.663C718.815 661.262 714.258 665.562 704.668 669.104C703.743 669.441 697.127 672.215 698.042 669.16C698.957 666.106 703.238 658.695 703.333 656.015C703.381 654.619 698.061 643.488 697.365 643.319C693.771 644.115 679.176 642.288 677.184 643.506C676.631 643.844 671.368 654.413 671.378 655.059C671.378 658.367 677.098 666.293 677.031 670.519C674.514 672.758 650.586 659.941 651.292 653.663H666.068C668.127 653.663 674.943 643.703 675.115 641.904C675.229 640.714 670.158 624.702 669.385 624.158C668.07 623.222 654.647 621.357 652.912 621.788C651.33 622.181 644.59 634.128 640.796 633.987C640.758 633.678 640.824 633.359 640.796 633.05C640.386 629.003 640.424 621.732 640.901 617.693C641.091 616.073 643.961 606.488 644.628 605.888C646.191 604.483 646.287 606.469 646.735 607.106C648.746 609.945 651.13 616.475 654.142 618.068C655.448 618.752 668.442 620.814 669.738 620.607C670.835 620.439 685.087 610.076 685.42 608.989C685.754 607.902 685.868 601.709 685.506 601.287C677.594 600.866 667.136 595.179 659.862 594.635C659.557 594.616 659.204 594.607 658.909 594.635C657.078 593.22 654.457 592.621 652.235 591.824C647.154 589.997 637.774 587.655 636.239 581.79C634.428 574.875 638.203 577.405 638.889 576.833H638.908ZM725.65 604.005C713.972 608.858 700.559 603.161 688.48 602.131C688.499 605.092 687.746 607.265 689.872 609.654C690.578 610.451 703.762 619.98 704.725 620.401C706.965 621.385 719.968 617.581 721.808 615.698C722.866 614.62 726.155 604.67 725.64 604.014L725.65 604.005Z" fill="#023E55"/>
<path d="M851.497 332.289C849.962 347.271 849.371 362.562 847.56 377.609C845.434 395.299 842.336 413.091 838.942 430.519C837.15 430.181 835.51 431.371 834.338 431.606C819.59 434.585 792.64 431.399 778.092 426.921C775.347 426.078 771.143 424.157 768.559 422.705V403.497C764.937 406.064 761.371 415.031 757.367 416.427C756.233 416.821 754.965 416.418 754.259 416.614C737.233 411.283 718.52 405.165 703.734 395.065C702.571 394.268 695.459 388.459 695.278 387.85C694.754 386.051 698.1 376.953 698.967 374.452C699.835 371.95 700.893 369.383 701.827 366.956C707.652 351.777 721.952 330.509 725.66 317.298C755.384 313.39 783.069 326.311 812.097 330.256C825.176 332.036 838.294 332.645 851.497 332.289Z" fill="#023E55"/>
<path d="M829.571 481.264C829.953 518.695 828.675 557.522 821.211 594.382C820.629 597.277 822.708 602.271 818.132 601.194C816.873 601.147 815.577 601.166 814.318 601.194L813.365 602.131C812.736 602.168 812.078 602.065 811.459 602.131L810.982 601.213L810.505 602.131C807.807 602.552 803.794 601.756 801.382 603.939C799.161 605.954 800.867 609.645 798.455 610.479C795.462 611.51 790.8 607.546 787.626 611.5C790.39 592.368 785.71 568.644 784.728 548.294C783.66 526.163 785.109 503.114 783.812 481.264H829.571Z" fill="#FDFEFE"/>
<path d="M834.337 431.606C833.889 448.087 829.409 464.858 829.571 481.264H783.812C783.812 481.133 782.897 480.224 782.82 478.997C781.695 461.597 779.855 444.245 778.092 426.921C792.639 431.4 819.589 434.585 834.337 431.606Z" fill="#F59D83"/>
<path d="M821.943 602.131L825.766 601.213C825.766 601.7 824.794 602.065 824.803 602.131C823.85 602.093 822.887 602.187 821.943 602.131Z" fill="#FDFEFE"/>
<path d="M778.091 426.921C779.854 444.245 781.694 461.597 782.819 478.997C782.895 480.224 783.801 481.133 783.811 481.264C785.107 503.114 783.658 526.163 784.726 548.294C785.708 568.644 790.388 592.368 787.624 611.5C787.576 611.81 787.672 612.128 787.624 612.437C787.576 612.746 787.662 613.065 787.624 613.374C787.586 613.683 787.643 614.002 787.624 614.311C785.45 614.967 785.765 616.729 785.66 618.481C785.345 623.915 786.003 629.49 785.717 634.934C779.587 633.547 736.917 636.732 735.192 634.934C734.915 634.643 735.316 630.155 733.285 627.438C736.012 628 735.354 625.901 735.23 624.168C734.906 619.596 733.647 613.712 732.122 609.383C731.073 606.431 726.641 599.835 726.621 597.455C726.612 595.844 728.862 590.044 729.224 587.364C729.91 582.211 733.075 570.04 724.715 571.221C725.601 570.602 727.451 570.349 727.622 569.684C728.08 567.97 727.336 564.775 727.689 562.432C730.864 541.276 734.496 519.941 736.145 498.598C736.812 489.922 735.64 480.964 738.099 472.41C738.099 472.213 735.363 470.986 735.201 470.967C738.08 471.492 737.051 469.533 737.108 467.735C737.337 461.073 735.201 442.474 736.584 438.127C736.974 436.909 750.874 418.451 751.941 417.58C753.009 416.708 753.247 416.924 754.268 416.633C754.973 416.436 756.231 416.839 757.375 416.446C761.379 415.059 764.945 406.083 768.567 403.516V422.723C771.151 424.176 775.355 426.096 778.1 426.94L778.091 426.921Z" fill="#E5EFF0"/>
<path d="M787.624 613.374C787.662 613.065 787.577 612.746 787.624 612.437L788.558 612.906L787.624 613.374Z" fill="#FDFEFE"/>
<path d="M813.363 602.131L814.317 601.194C814.097 601.194 813.611 602.121 813.363 602.131Z" fill="#E5EFF0"/>
<path d="M811.457 602.131C811.143 602.168 810.809 602.084 810.504 602.131L810.981 601.213L811.457 602.131Z" fill="#E5EFF0"/>
<path d="M570.269 324.793C570.593 337.714 574.12 352.714 575.036 366.019C575.245 369.111 574.883 372.287 575.036 375.389C575.169 378.162 575.989 382.538 575.989 384.29V432.074C575.989 434.257 576.856 438.689 576.942 441.912C577.057 446.1 577.209 450.888 576.942 455.029C576.628 459.986 573.711 458.093 569.316 459.714C569.23 454.73 569.402 449.708 569.316 444.723C568.791 414.263 570.288 383.746 567.4 353.38C566.856 347.636 565.083 341.893 565.493 336.037C563.215 335.896 560.946 335.718 560.736 338.379C561.384 353.23 563.157 368.034 563.596 382.884C564.311 406.833 563.596 431.062 563.596 455.029V460.651C550.145 462.422 539.029 463.218 525.463 461.588C523.452 461.344 514.338 460.614 513.986 459.096L508.771 380.055L505.787 381.432C504.472 407.404 503.9 433.686 501.44 459.517C501.154 459.892 495.205 461.382 494.004 461.588C493.051 461.757 487.321 462.525 486.854 462.525H464.928L452.058 460.651C454.118 457.578 451.734 396.817 452.02 387.063C452.535 369.533 454.108 351.806 454.918 334.163L455.872 330.415C456.024 329.946 455.767 329.122 455.872 328.541C477.703 333.891 543.081 334.584 564.025 327.557L570.269 324.793Z" fill="#023E55"/>
<path d="M568.363 459.714C568.421 460.511 568.392 461.335 569.317 461.588C570.146 511.209 572.158 553.615 564.445 603.433C564.197 605.017 563.959 606.637 562.643 607.752C556.933 605.251 547.066 602.58 542.204 607.809C540.098 610.076 540.098 614.517 539.602 615.079C539.221 615.51 536.141 615.754 534.997 616.185C533.119 608.09 533.682 599.563 533.081 591.365C530.66 558.366 526.656 525.104 525.426 492.076C525.045 481.948 525.788 471.716 525.464 461.588C539.03 463.218 550.146 462.422 563.597 460.651C564.388 460.548 565.265 460.651 565.503 459.714H568.363Z" fill="#F59D83"/>
<path d="M452.059 460.651L464.929 462.525H486.855C487.322 462.525 493.052 461.757 494.005 461.588L493.042 508.895L484.472 616.185C483.395 615.82 480.601 616.063 479.896 615.051C479.095 613.908 479.124 609.167 476.578 607.087C472.06 603.386 462.479 604.595 457.779 607.752C455.32 608.249 455.329 606.019 455.024 604.389C448.484 568.719 445.929 517.702 448.198 481.686C448.646 474.593 448.789 465.505 452.05 460.642L452.059 460.651Z" fill="#F59D83"/>
<path d="M562.644 607.752C570.29 616.766 575.256 627.635 582.664 636.798C583.197 637.463 582.435 638.194 584.57 639.609C584.818 641.501 585.524 643.488 587.43 644.294C587.478 644.593 587.402 644.921 587.43 645.23C587.611 647.058 587.306 649.006 587.43 650.852C585.829 660.578 583.245 665.59 571.662 665.871C553.416 666.321 546.991 643.403 529.393 640.443C529.059 638.625 529.335 636.76 529.278 634.924C529.183 631.654 529.545 618.565 531.852 617.038C532.729 616.457 534.054 616.541 534.998 616.185C536.132 615.754 539.221 615.51 539.603 615.079C540.098 614.508 540.098 610.067 542.205 607.809C547.067 602.59 556.943 605.251 562.644 607.752ZM572.177 622.753C568.364 620.664 556.648 622.022 554.531 625.536C550.146 632.797 560.614 626.257 563.34 625.77C567.277 625.058 571.31 627.307 572.177 622.753ZM575.99 630.249C575.79 630.005 570.557 629.209 569.794 629.218C565.294 629.246 558.917 632.019 557.887 636.789C561.376 637.435 564.217 634.924 567.163 634.203C568.85 633.79 575.295 634.062 575.962 632.994C576.114 632.75 576.086 630.361 576 630.258L575.99 630.249ZM581.71 638.672C580.042 636.948 563.531 639.862 564.551 644.743C565.17 647.713 569.517 644.181 571.186 643.788C573.455 643.253 581.339 642.776 581.71 642.41C581.844 642.279 581.844 638.812 581.71 638.672Z" fill="#187B99"/>
<path d="M457.779 607.752C462.479 604.595 472.051 603.386 476.579 607.087C479.124 609.167 479.096 613.908 479.896 615.051C480.611 616.063 483.395 615.82 484.472 616.185C492.223 618.827 488.733 633.031 490.24 639.993C490.068 641.136 488.667 640.34 488.285 640.546C481.736 644.116 476.245 646.608 470.621 651.761C460.582 660.962 461.049 666.855 443.956 664.906C434.795 663.866 434.318 659.791 432.04 652.726C430.191 644.912 434.004 643.488 436.807 638.672C436.073 644.2 441.926 641.876 445.653 642.626C447.493 642.991 460.02 650.065 453.556 642.354C449.591 637.632 442.317 638.691 436.807 638.672C440.267 632.741 443.337 627.597 447.293 621.807C447.026 622.125 447.245 624.046 447.722 624.664C448.265 625.386 462.737 627.222 465.406 628.356C466.312 621.91 449.428 619.268 447.293 621.807C450.401 617.253 452.908 611.022 457.779 607.752ZM460.63 636.789C460.077 629.218 448.427 628.468 442.517 630.239C442.603 636.142 447.312 633.387 451.516 634.034C454.491 634.493 457.293 637.126 460.62 636.779L460.63 636.789Z" fill="#187B99"/>
<path d="M444.433 316.361C447.474 315.967 446.073 319.827 447.408 322.338C448.199 323.819 450.754 325.205 451.106 326.667C452.422 332.101 448.675 352.677 448.256 359.938C447.446 373.861 446.664 388.206 446.302 402.054C445.806 420.934 446.75 439.907 446.34 458.777L438.79 457.765C438.294 455.067 439.6 452.575 439.705 449.914C440.649 425.928 439.438 401.698 440.582 377.693C441.449 359.47 445.081 339.672 445.387 321.982C445.415 320.146 444.481 318.272 444.433 316.361Z" fill="#023E55"/>
<path d="M488.286 640.546C488.705 641.314 492.156 644.5 492.147 644.79C492.128 645.24 488.486 651.93 487.857 652.763C484.749 656.849 480.717 656.53 477.313 659.266C473.91 662.002 472.423 666.171 468.028 668.879C456.274 676.112 424.557 673.629 427.331 655.125C427.674 652.857 429.781 650.74 429.19 648.032C431.507 647.292 431.373 650.627 432.041 652.726C434.319 659.791 434.796 663.866 443.957 664.906C461.059 666.855 460.583 660.962 470.621 651.761C476.246 646.608 481.737 644.106 488.286 640.546Z" fill="#FDFEFE"/>
<path d="M454.92 334.163C455.025 331.895 455.358 331.951 455.873 330.415L454.92 334.163Z" fill="#187B99"/>
<path d="M576.942 455.029C581.823 458.112 586.342 461.832 591.328 464.783C617.639 480.402 646.277 483.269 676.106 477.057C681.196 475.998 685.944 473.197 691.254 473.862L695.162 552.472C690.148 552.866 686.43 556.511 681.826 558.113C681.32 560.755 684.523 561.008 685.658 562.535C686.792 564.062 690.358 571.286 686.993 572.13C682.874 573.16 681.196 561.795 677.545 561.795L674.209 564.194C675.934 565.458 683.637 573.441 679.318 574.865C675 576.29 671.616 566.358 668.165 566.676C666.563 566.826 662.941 569.59 660.138 570.059C654.752 570.958 643.474 568.757 639.794 573.526C638.822 574.781 639.041 576.73 638.908 576.842C638.221 577.414 634.446 574.884 636.257 581.799C637.792 587.664 647.182 590.007 652.254 591.834C649.48 599.282 655.381 595.029 658.927 594.645C659.223 594.616 659.575 594.626 659.88 594.645C660.128 599.545 656.182 599.685 652.254 599.339C652.12 602.281 656.925 603.105 657.087 603.649C657.44 604.848 657.182 611.453 656.525 612.465C655.867 613.477 653.283 612.887 654.132 615.726C654.189 616.382 658.393 615.876 654.16 618.059C651.148 616.466 648.765 609.945 646.753 607.097C646.305 606.459 646.2 604.473 644.646 605.879C643.979 606.488 641.11 616.063 640.919 617.684C640.442 621.722 640.414 628.993 640.814 633.041C639.174 634.568 637.83 634.821 635.628 634.98C622.406 635.927 606.161 635.102 592.634 634.962C590.222 634.933 583.12 632.235 582.662 636.789C575.255 627.625 570.288 616.757 562.643 607.743C563.958 606.637 564.206 605.007 564.444 603.424C572.157 553.606 570.145 511.2 569.316 461.579C569.306 460.951 569.325 460.333 569.316 459.705C573.711 458.084 576.628 459.976 576.942 455.02V455.029Z" fill="#E5EFF0"/>
<path d="M584.57 639.609C584.79 639.749 585.962 639.262 586.324 639.721C586.467 639.909 587.335 643.647 587.43 644.294C585.524 643.488 584.818 641.501 584.57 639.609Z" fill="#E5EFF0"/>
<path d="M587.429 650.852C587.305 649.006 587.61 647.058 587.429 645.23C590.012 646.805 587.582 649.925 587.429 650.852Z" fill="#E5EFF0"/>
<path d="M649.394 247.963C651.253 253.978 653.78 262.561 655.114 268.576C658.918 285.741 662.731 312.472 663.675 329.956C664.066 337.198 662.684 341.152 657.488 346.334C649.433 354.373 642.807 353.529 634.227 346.727C620.69 335.999 631.31 331.277 639.756 322.348C641.673 319.387 639.184 305.089 637.497 302.278C636.611 300.807 633.789 303.468 633.188 304.171C626.992 304.002 620.261 281.468 621.863 278.986C624.275 277.58 641.053 276.746 641.758 276.034C642.025 275.762 641.615 273.233 641.777 272.314L621.758 274.179C622.501 267.995 625.523 262.448 628.984 257.398C629.985 255.937 634.675 252.667 633.188 250.765C631.167 248.179 624.608 255.534 623.245 257.389C619.756 262.13 617.153 269.307 616.982 275.125L598.869 276.072V234.836C603.254 235.014 606.267 236.12 610.061 236.495C611.481 236.635 612.568 237.451 612.206 235.314L570.27 195.484C571.957 179.153 574.721 162.035 575.989 145.826C578.84 145.751 581.604 148.337 583.625 150.033C610.108 172.22 639.299 215.282 649.394 247.954V247.963Z" fill="#F59D83"/>
<path d="M769.511 84.9336C771.465 83.7156 777.138 84.3714 777.138 83.9967V70.8793C789.025 76.0513 799.521 74.7958 811.667 71.5539C819.446 69.4739 834.66 61.1913 841.972 66.6631C846.596 70.1204 844.089 83.2939 844.823 84.006C845.28 84.4464 850.285 83.5469 851.505 84.006C851.877 84.1466 855.957 89.9276 856.062 90.293C858.15 97.3388 852.325 106.024 846.243 109.285C843.536 110.728 839.875 110.868 838.102 112.527C835.166 115.281 832.287 124.773 827.854 127.762C828.044 134.882 826.891 141.535 835.28 143.484C834.699 145.461 826.862 153.069 824.813 154.746C822.763 156.423 813.402 163.047 811.686 163.469C804.688 165.155 788.701 149.302 783.811 144.43C790.208 141.582 792.724 141.853 793.325 134.124C794.021 125.204 791.323 126.647 787.777 120.866C786.528 118.833 784.516 113.192 783.334 112.115C782.81 111.637 771.256 106.587 770.464 106.493C770.398 104.947 769.301 103.954 768.558 102.745C768.329 102.37 767.795 102.108 767.605 101.808C767.471 101.593 767.728 101.143 767.605 100.871C767.423 100.468 767.033 100.159 766.651 99.9342C766.318 99.1284 765.736 97.0015 765.698 96.1864C765.564 93.2818 767.023 86.4983 769.511 84.943V84.9336Z" fill="#F59D83"/>
<path d="M543.577 94.3031C557.553 95.062 572.72 96.0458 586.915 96.2145C646.487 96.9172 706.136 95.6055 765.699 96.177C765.737 96.9922 766.318 99.119 766.652 99.9248C766.814 100.309 767.262 100.618 767.605 100.862C767.729 101.133 767.472 101.583 767.605 101.799L768.559 102.736C769.302 103.944 770.399 104.938 770.465 106.483H528.324C529.478 104.694 530.422 100.955 532.166 99.4844C532.719 99.016 542.948 94.275 543.577 94.3031Z" fill="#FDFEFE"/>
<path d="M649.395 247.963C653.141 247.673 651.749 256.808 652.254 257.333C670.549 257.042 688.995 262.336 704.687 271.387C703.114 273.739 700.559 278.086 698.967 280.756C697.432 278.967 693.561 277.449 691.321 276.55C680.091 272.052 667.393 267.508 655.114 268.576C653.78 262.561 651.253 253.978 649.395 247.963Z" fill="#FDFEFE"/>
<path d="M655.114 268.576C667.392 267.517 680.091 272.062 691.321 276.55C693.561 277.449 697.431 278.958 698.966 280.756C691.054 294.005 674.571 326.358 670.643 340.525C668.403 348.582 666.573 355.357 672.273 362.271C671.368 364.051 670.958 364.08 669.023 364.211C639.785 366.206 607.973 362.993 578.325 364.145C576.485 364.22 574.502 363.18 575.036 366.019C574.12 352.714 570.593 337.714 570.269 324.793C570.202 322.113 572.452 317.888 570.269 314.487C575.083 319.19 588.296 322.61 595.055 322.919C596.304 322.975 597.62 322.975 598.868 322.919C609.822 322.413 619.555 318.459 627.496 311.198C628.23 310.523 628.221 309.052 628.421 308.865C630.404 306.926 630.804 306.954 633.188 304.18C633.788 303.478 636.61 300.817 637.497 302.288C639.184 305.089 641.672 319.396 639.756 322.357C631.31 331.286 620.68 336.008 634.227 346.737C642.816 353.539 649.442 354.391 657.488 346.343C662.683 341.152 664.065 337.208 663.674 329.965C662.721 312.482 658.917 285.75 655.114 268.585V268.576Z" fill="#E5EFF0"/>
<path d="M688.481 364.145C688.443 360.781 690.13 348.376 692.313 346.343C695.316 343.551 693.333 354.026 695.126 355.272C699.149 358.092 701.541 346.774 701.847 344.001C702.466 338.313 700.502 325.318 702.333 321.055C702.714 320.165 711.322 309.83 712.657 308.237C720.598 298.774 729.34 290.06 736.185 279.36C744.135 266.936 749.055 252.817 755.242 239.521C757.873 236.991 757.243 246.408 757.12 247.476C754.507 271.621 732.619 292.553 725.67 317.288C721.961 330.499 707.662 351.768 701.837 366.947C701.561 362.281 692.323 364.717 688.491 364.136L688.481 364.145Z" fill="#E5EFF0"/>
<path d="M672.275 362.271C674.21 364.623 683.515 372.915 686.251 373.262C691.484 373.927 688.52 367.771 688.481 364.145C692.314 364.726 701.551 362.29 701.828 366.956C700.893 369.383 699.807 372.034 698.968 374.452L575.037 375.389C574.885 372.287 575.247 369.111 575.037 366.019C574.503 363.18 576.496 364.22 578.326 364.145C607.974 362.993 639.786 366.206 669.024 364.211C670.95 364.08 671.36 364.051 672.275 362.271Z" fill="#FDFEFE"/>
<path d="M449.199 282.63C443.479 279.164 436.587 274.751 431.591 270.422C419.608 260.04 411.753 242.669 400.113 231.136C397.749 228.793 392.401 227.697 396.281 223.584C399.084 220.614 407.396 214.767 411.152 211.975C420.876 204.732 431.487 198.464 441.573 191.746C444.785 221.878 450.801 252.404 449.199 282.63Z" fill="#E5EFF0"/>
<path d="M598.87 234.846V276.081L616.983 275.135C617.154 269.316 619.757 262.139 623.246 257.398C624.609 255.543 631.168 248.188 633.189 250.774C634.676 252.676 629.986 255.946 628.985 257.408C625.524 262.458 622.502 268.005 621.759 274.188L641.778 272.324C641.626 273.242 642.026 275.772 641.759 276.044C641.054 276.756 624.275 277.59 621.864 278.995C620.262 281.478 626.992 304.012 633.189 304.18C630.806 306.954 630.405 306.926 628.422 308.865C621.492 300.489 616.754 289.873 616.983 278.873L598.86 279.81V322.919C597.621 322.976 596.296 322.976 595.056 322.919C594.38 317.588 596.315 281.693 594.16 280.232C591.825 278.639 581.481 280.56 578.04 280.906C576.82 289.283 573.283 298.812 566.457 304.19C566.028 301.407 564.722 301.725 566.457 297.631C568.802 292.094 574.16 286.968 573.13 279.829C570.594 279.763 568.03 279.904 565.504 279.829C564.55 279.801 563.588 279.876 562.644 279.829C562.491 278.62 562.834 277.234 562.644 276.072H573.13C573.864 274.338 572.406 273.186 572.177 272.324C571.624 270.244 570.795 267.442 569.317 265.765C568.526 263.31 566.305 259.469 563.597 259.207C563.797 256.995 564.407 255 564.55 253.585C571.958 258.841 577.487 266.88 577.897 276.072H595.056V234.846C596.305 234.79 597.621 234.799 598.87 234.846Z" fill="#023E55"/>
<path d="M570.271 195.494L612.207 235.324C612.56 237.46 611.473 236.645 610.062 236.504C606.258 236.129 603.255 235.024 598.87 234.846C597.621 234.799 596.306 234.79 595.057 234.846C590.08 235.08 585.781 235.792 581.062 237.488C574.694 239.784 570.233 243.822 564.551 247.026C566.286 229.871 568.488 212.668 570.271 195.494Z" fill="#E5EFF0"/>
<path d="M595.057 234.846V276.072H577.897C577.487 266.88 571.958 258.841 564.551 253.585C564.76 251.449 564.331 249.162 564.551 247.026C570.232 243.822 574.694 239.784 581.062 237.488C585.781 235.792 590.08 235.071 595.057 234.846Z" fill="#F59D83"/>
<path d="M595.056 322.919C588.297 322.61 575.085 319.19 570.27 314.487C566.943 311.245 567.067 308.144 566.457 304.18C573.283 298.802 576.82 289.273 578.04 280.897C581.481 280.55 591.834 278.639 594.16 280.222C596.315 281.693 594.38 317.579 595.056 322.91V322.919Z" fill="#F59D83"/>
<path d="M565.503 279.819C568.039 279.904 570.603 279.754 573.129 279.819C574.159 286.959 568.801 292.084 566.456 297.622C564.082 296.947 564.788 295.082 564.54 293.415C563.968 289.686 561.852 281.937 565.503 279.819Z" fill="#F59D83"/>
<path d="M569.317 265.765C568.011 264.285 566.962 262.701 564.56 262.954C565.037 265.559 563.673 272.436 564.97 274.254C565.837 275.472 573.912 276.765 572.177 272.324C572.406 273.186 573.864 274.338 573.13 276.072H562.644C561.719 270.291 563.082 264.997 563.597 259.207C566.305 259.469 568.526 263.31 569.317 265.765Z" fill="#979797"/>
<path d="M695.153 552.472C699.682 552.116 705.335 554.609 707.604 558.525C709.444 561.692 707.117 562.929 707.918 565.618C708.366 567.136 712.837 571.727 714.296 572.542C718.958 575.156 720.836 573.919 724.706 571.221C733.067 570.04 729.902 582.211 729.215 587.364C728.862 590.044 726.603 595.844 726.613 597.455C723.152 597.568 721.398 600.163 717.671 600.173C706.641 600.21 650.872 587.158 642.75 581.031C641.139 579.813 640.757 577.733 638.898 576.842C639.032 576.73 638.813 574.79 639.785 573.526C643.455 568.747 654.733 570.949 660.129 570.059C662.931 569.59 666.554 566.826 668.156 566.676C671.607 566.358 675.077 576.261 679.309 574.865C683.542 573.469 675.916 565.458 674.2 564.194L677.536 561.795C681.197 561.795 682.865 573.16 686.983 572.13C690.349 571.286 686.802 564.081 685.649 562.535C684.495 560.989 681.311 560.755 681.817 558.113C686.431 556.511 690.148 552.866 695.153 552.472Z" fill="#F59D83"/>
<path d="M659.881 594.635C667.155 595.179 677.613 600.866 685.525 601.287C685.888 601.7 685.783 607.884 685.439 608.989C685.096 610.095 670.854 620.429 669.757 620.607C668.461 620.814 655.467 618.752 654.161 618.068C658.394 615.885 654.19 616.382 654.133 615.735C653.275 612.896 655.849 613.515 656.525 612.475C657.202 611.435 657.441 604.848 657.088 603.658C656.926 603.115 652.121 602.29 652.255 599.348C656.182 599.695 660.129 599.554 659.881 594.654V594.635ZM664.648 599.32C658.27 600.013 655.83 604.333 663.694 604.942L664.648 599.32Z" fill="#FDFEFE"/>
<path d="M725.65 604.005C726.174 604.66 722.875 614.611 721.817 615.688C719.977 617.581 706.974 621.376 704.734 620.392C703.771 619.97 690.587 610.441 689.881 609.645C687.755 607.256 688.499 605.082 688.49 602.121C700.558 603.152 713.981 608.849 725.659 603.995L725.65 604.005Z" fill="#E5EFF0"/>
<path d="M658.927 594.635C655.381 595.019 649.48 599.273 652.254 591.824C654.476 592.621 657.097 593.22 658.927 594.635Z" fill="#FDFEFE"/>
<path d="M698.968 374.452C698.1 376.953 694.754 386.051 695.278 387.85C695.459 388.459 702.571 394.277 703.734 395.064C699.768 406.289 695.078 417.504 691.341 428.795C688.367 437.789 691.961 450.944 689.921 460.66C662.78 473.703 627.593 471.716 601.072 458.018C592.473 453.577 585.409 446.494 576.944 441.912C576.858 438.689 575.99 434.257 575.99 432.074V384.29C575.99 382.537 575.171 378.162 575.037 375.388L698.968 374.452Z" fill="#E5EFF0"/>
<path d="M754.258 416.614C753.229 416.905 753.019 416.68 751.932 417.561C750.846 418.441 736.956 436.89 736.574 438.108C735.192 442.456 737.328 461.054 737.099 467.716C737.042 469.515 738.071 471.473 735.192 470.948C731.894 470.48 727.928 471.239 724.353 470.826C713.314 469.571 702.446 466.723 691.445 465.223L691.34 428.785C695.077 417.495 699.767 406.28 703.733 395.055C718.519 405.156 737.232 411.274 754.258 416.605V416.614Z" fill="#F59D83"/>
<path d="M691.341 428.795L691.445 465.233C702.447 466.732 713.305 469.571 724.354 470.836C727.929 471.239 731.894 470.489 735.193 470.958C735.355 470.976 738.091 472.204 738.091 472.4C735.641 480.945 736.813 489.912 736.137 498.588C734.487 519.932 730.865 541.266 727.681 562.423C727.328 564.765 728.062 567.96 727.614 569.675C727.442 570.331 725.593 570.593 724.706 571.211C720.836 573.91 718.958 575.156 714.296 572.532C712.838 571.717 708.367 567.126 707.919 565.608C707.118 562.919 709.453 561.692 707.604 558.516C705.326 554.609 699.672 552.107 695.154 552.463L691.245 473.853C685.935 473.188 681.188 475.989 676.097 477.048C646.277 483.26 617.63 480.393 591.319 464.774C586.343 461.822 581.815 458.093 576.934 455.02C577.201 450.879 577.048 446.091 576.934 441.903C585.399 446.484 592.463 453.568 601.062 458.009C627.574 471.707 662.77 473.693 689.911 460.651C691.951 450.935 688.357 437.78 691.331 428.785L691.341 428.795Z" fill="#FDFEFE"/>
<path d="M563.596 382.884C563.158 368.033 561.385 353.22 560.736 338.379C560.946 335.718 563.215 335.896 565.493 336.037C565.074 341.893 566.847 347.636 567.4 353.38C570.279 383.755 568.792 414.263 569.316 444.723C567.819 448.677 568.02 455.292 568.363 459.714H563.596V382.884Z" fill="#E5EFF0"/>
<path d="M563.596 455.029C563.596 431.062 564.311 406.833 563.596 382.884V455.029Z" fill="#979797"/>
<path d="M569.317 459.714C569.326 460.342 569.307 460.96 569.317 461.588C568.392 461.335 568.42 460.511 568.363 459.714C568.02 455.292 567.82 448.677 569.317 444.723C569.402 449.707 569.231 454.73 569.317 459.714Z" fill="#979797"/>
<path d="M565.502 459.714C565.264 460.651 564.387 460.548 563.596 460.651V459.714H565.502Z" fill="#979797"/>
<path d="M575.99 630.249C576.076 630.352 576.104 632.741 575.952 632.985C575.284 634.043 568.84 633.781 567.153 634.193C564.216 634.915 561.376 637.426 557.877 636.779C558.916 632.01 565.294 629.237 569.784 629.209C570.546 629.209 575.78 629.996 575.98 630.239L575.99 630.249Z" fill="#023E55"/>
<path d="M581.709 638.672C581.842 638.803 581.842 642.279 581.709 642.41C581.337 642.776 573.453 643.254 571.184 643.788C569.516 644.181 565.169 647.713 564.549 644.743C563.529 639.862 580.041 636.948 581.709 638.672Z" fill="#023E55"/>
<path d="M572.176 622.753C571.309 627.307 567.276 625.058 563.339 625.77C560.613 626.267 550.145 632.797 554.53 625.536C556.656 622.022 568.363 620.654 572.176 622.753Z" fill="#023E55"/>
<path d="M447.293 621.807C449.429 619.268 466.302 621.919 465.406 628.356C462.746 627.213 448.266 625.386 447.722 624.664C447.255 624.037 447.026 622.125 447.293 621.807Z" fill="#023E55"/>
<path d="M460.629 636.788C457.292 637.135 454.499 634.502 451.525 634.043C447.311 633.387 442.611 636.142 442.525 630.249C448.436 628.468 460.085 629.227 460.638 636.798L460.629 636.788Z" fill="#023E55"/>
<path d="M436.807 638.672C442.317 638.691 449.591 637.632 453.557 642.354C460.03 650.065 447.503 642.991 445.654 642.626C441.926 641.876 436.073 644.2 436.807 638.672Z" fill="#023E55"/>
<path d="M767.606 100.862C767.262 100.618 766.814 100.309 766.652 99.9248C767.034 100.15 767.425 100.459 767.606 100.862Z" fill="#E5EFF0"/>
<path d="M768.559 102.736L767.605 101.799C767.796 102.099 768.33 102.361 768.559 102.736Z" fill="#E5EFF0"/>
<path d="M598.869 322.919V279.81L616.982 278.873C616.744 289.873 621.482 300.489 628.422 308.865C628.222 309.052 628.231 310.523 627.497 311.198C619.546 318.459 609.823 322.413 598.869 322.919Z" fill="#F59D83"/>
<path d="M572.177 272.324C573.912 276.765 565.837 275.481 564.97 274.254C563.673 272.436 565.036 265.559 564.56 262.954C566.971 262.701 568.02 264.285 569.317 265.765C570.794 267.442 571.624 270.244 572.177 272.324Z" fill="#F59D83"/>
<path d="M664.648 599.32L663.695 604.942C655.839 604.333 658.27 600.023 664.648 599.32Z" fill="#E5EFF0"/>
</g>
<defs>
<clipPath id="clip0_80_9732">
<rect width="1025.81" height="723.401" fill="white" transform="translate(0.189453 0.598633)"/>
</clipPath>
</defs>
</svg>
